<?xml version="1.0" encoding="UTF-8" standalone="no"?>
<!-- Created with Inkscape (http://www.inkscape.org/) -->

<svg
   xmlns:dc="http://purl.org/dc/elements/1.1/"
   xmlns:cc="http://creativecommons.org/ns#"
   xmlns:rdf="http://www.w3.org/1999/02/22-rdf-syntax-ns#"
   xmlns:svg="http://www.w3.org/2000/svg"
   xmlns="http://www.w3.org/2000/svg"
   xmlns:sodipodi="http://sodipodi.sourceforge.net/DTD/sodipodi-0.dtd"
   xmlns:inkscape="http://www.inkscape.org/namespaces/inkscape"
   width="744.09448"
   height="590"
   viewBox="0 0 744.09449 590.00004"
   id="svg2"
   version="1.1"
   inkscape:version="0.91 r13725"
   sodipodi:docname="suv.svg">
  <defs
     id="defs4">
    <clipPath
       clipPathUnits="userSpaceOnUse"
       id="clipPath3655">
      <rect
         style="fill:#ffff00;fill-opacity:1;stroke:#000000;stroke-width:0.28099999;stroke-linecap:round;stroke-linejoin:round;stroke-miterlimit:4;stroke-dasharray:none;stroke-dashoffset:0;stroke-opacity:1"
         id="rect3657"
         width="1217.1428"
         height="920"
         x="-438.57144"
         y="278.07648"
         ry="2.1428599" />
    </clipPath>
  </defs>
  <sodipodi:namedview
     id="base"
     pagecolor="#ffffff"
     bordercolor="#666666"
     borderopacity="1.0"
     inkscape:pageopacity="0.0"
     inkscape:pageshadow="2"
     inkscape:zoom="0.49497475"
     inkscape:cx="549.07826"
     inkscape:cy="116.58415"
     inkscape:document-units="px"
     inkscape:current-layer="layer1"
     showgrid="false"
     inkscape:snap-nodes="false"
     inkscape:snap-others="false"
     inkscape:snap-bbox="true"
     inkscape:bbox-nodes="true"
     inkscape:snap-page="true"
     units="px"
     inkscape:window-width="1920"
     inkscape:window-height="1056"
     inkscape:window-x="0"
     inkscape:window-y="24"
     inkscape:window-maximized="1" />
  <metadata
     id="metadata7">
    <rdf:RDF>
      <cc:Work
         rdf:about="">
        <dc:format>image/svg+xml</dc:format>
        <dc:type
           rdf:resource="http://purl.org/dc/dcmitype/StillImage" />
        <dc:title></dc:title>
      </cc:Work>
    </rdf:RDF>
  </metadata>
  <g
     inkscape:label="Layer 1"
     inkscape:groupmode="layer"
     id="layer1"
     transform="translate(0,-462.36216)">
    <g
       id="g3796"
       transform="matrix(0.71902235,0,0,0.71902235,280.87704,187.93333)">
      <path
         style="fill:#d7e3d3"
         d="m -126.31074,1059.9627 -213.18701,-142.26565 -4.63822,-8.90625 c -4.4931,-8.6276 -5.29311,-11.53325 -25.56983,-92.86965 l -20.93162,-83.96341 30.45653,-33.12585 30.45653,-33.12586 101.06531,-26.95092 c 55.58592,-14.82301 101.39171,-27.31253 101.79065,-27.75449 0.39893,-0.44197 23.81761,-40.45982 52.041484,-88.92857 28.223879,-48.46875 51.801385,-88.63896 52.394466,-89.26713 0.668522,-0.70807 54.279891,-8.00517 141.06576,-19.2006 l 139.98743,-18.05846 192.70837,13.30638 c 105.9896,7.31851 192.79423,13.42753 192.89913,13.5756 0.10491,0.14806 -1.81762,29.58952 -4.27218,65.42546 l -4.46288,65.15625 -16.03912,78.75 c -8.8216,43.3125 -17.27503,83.03234 -18.78553,88.26632 -1.51051,5.23398 -4.74704,14.09335 -7.19232,19.6875 -4.25297,9.72947 -4.90547,10.63939 -15.02672,20.95243 -6.83109,6.96056 -10.58278,11.49506 -10.58653,12.7955 -0.0103,3.62968 -6.57009,28.22859 -10.89309,40.84961 -9.98569,29.15296 -21.58123,51.52384 -33.09999,63.85863 -4.71762,5.05184 -7.97131,7.04883 -11.93998,7.32826 -1.46658,0.10326 -13.28141,-3.34871 -26.25518,-7.67105 l -23.58869,-7.85879 -9.69256,9.00217 c -5.33092,4.9512 -32.01533,29.90376 -59.2987,55.45014 l -49.60611,46.44795 -2.74663,-1.42034 c -1.51064,-0.78118 -2.86445,-1.28376 -3.00846,-1.11684 -0.144,0.16693 -0.75862,5.68809 -1.36583,12.26924 -2.96934,32.18302 -12.85972,64.88342 -29.98173,99.12802 -27.38234,54.7656 -64.05034,90.8532 -88.89662,87.4894 -4.13738,-0.5601 -17.08527,-7.6998 -48.1765,-26.5654 l -4.32552,-2.6246 -20.04948,18.7217 c -16.29214,15.2133 -31.32408,27.578 -38.94118,32.0315 -1.25257,0.7324 -15.000576,3.447 -17.458129,3.4472 -0.914268,10e-5 -97.5964685,-64.0193 -214.849321,-142.2654 z"
         id="path3834"
         inkscape:connector-curvature="0" />
      <path
         style="fill:#d3dad0"
         d="m -126.02639,1059.9624 -213.41478,-142.26535 -4.24323,-8.53056 c -3.87994,-7.80019 -6.05574,-15.72585 -25.41334,-92.57162 -11.64356,-46.22259 -21.17011,-84.19889 -21.17011,-84.3918 0,-0.1929 13.65939,-15.24355 30.3542,-33.44588 l 30.3542,-33.09516 101.57942,-27.08798 c 55.86868,-14.89839 101.64183,-27.16708 101.7181,-27.26375 0.0763,-0.0967 23.23524,-39.832 51.464377,-88.30075 28.229128,-48.46875 52.040522,-88.88064 52.914197,-89.80421 1.341937,-1.41855 23.235131,-4.47163 141.045296,-19.66921 l 139.4568,-17.99001 192.20543,13.27106 c 105.71295,7.29908 192.44173,13.50735 192.73048,13.79614 0.28884,0.28879 -1.41637,29.53515 -3.78928,64.99191 l -4.31447,64.46682 -16.00125,78.75 c -17.43984,85.83024 -18.67022,91.13735 -24.34209,105 -4.92657,12.04116 -8.62875,17.33291 -18.90366,27.0201 -6.24919,5.89177 -8.34675,8.46792 -8.34675,10.25136 0,3.92415 -6.35775,27.99331 -10.88728,41.2174 -9.98569,29.15296 -21.58123,51.52384 -33.09999,63.85863 -4.71762,5.05184 -7.97131,7.04883 -11.93998,7.32826 -1.46658,0.10326 -13.26308,-3.34261 -26.21445,-7.6575 l -23.54795,-7.84526 -3.72311,3.22601 c -2.0477,1.7743 -28.51169,26.42912 -58.80887,54.7885 -55.20338,51.67259 -56.32251,52.60905 -60.61784,50.72346 -1.29694,-0.56935 -1.64306,0.95644 -2.60452,11.48165 -2.95785,32.37974 -12.8464,65.15154 -30.02715,99.51364 -27.38234,54.7656 -64.05034,90.8532 -88.89662,87.4894 -4.14006,-0.5605 -17.19213,-7.7594 -48.27899,-26.6284 l -4.42801,-2.6878 -20.0741,18.7724 c -17.04599,15.9406 -31.59334,27.8198 -38.77502,31.6633 -1.42794,0.7642 -15.852539,3.8917 -17.945311,3.8909 -0.329756,-2e-4 -96.6362152,-64.0197 -214.014349,-142.2657 z"
         id="path3832"
         inkscape:connector-curvature="0" />
      <path
         style="fill:#b6c6b1"
         d="m -126.02639,1059.9624 -213.41478,-142.26535 -4.32172,-8.68857 c -3.99328,-8.02825 -5.89153,-14.96654 -24.97756,-91.29556 -11.36071,-45.43385 -20.74647,-83.3302 -20.85724,-84.21413 -0.20307,-1.62033 57.9001,-65.78525 61.0215,-67.38771 0.87428,-0.44883 46.38337,-12.74752 101.13132,-27.33041 54.74795,-14.58289 99.93718,-26.769 100.42049,-27.08024 0.48331,-0.31124 23.98035,-40.22213 52.215633,-88.69088 28.235288,-48.46875 52.022634,-88.82361 52.860769,-89.67746 1.223644,-1.2466 29.0543342,-5.09831 141.259988,-19.55007 l 139.73611,-17.9976 192.09389,13.25506 c 105.65161,7.29028 192.28373,13.44493 192.51577,13.67699 0.23212,0.23206 -1.5195,29.432 -3.89241,64.88876 l -4.31447,64.46682 -16.00125,78.75 c -17.43984,85.83024 -18.67022,91.13735 -24.34209,105 -4.92657,12.04116 -8.62875,17.33291 -18.90366,27.0201 -6.24919,5.89177 -8.34675,8.46792 -8.34675,10.25136 0,3.92415 -6.35775,27.99331 -10.88728,41.2174 -9.98569,29.15296 -21.58123,51.52384 -33.09999,63.85863 -4.71762,5.05184 -7.97131,7.04883 -11.93998,7.32826 -1.46658,0.10326 -13.26308,-3.34261 -26.21445,-7.6575 l -23.54795,-7.84526 -3.72311,3.22601 c -2.0477,1.7743 -28.51169,26.42912 -58.80887,54.7885 -55.20338,51.67259 -56.32251,52.60905 -60.61784,50.72346 -1.29694,-0.56935 -1.64306,0.95644 -2.60452,11.48165 -2.95785,32.37974 -12.8464,65.15154 -30.02715,99.51364 -27.38234,54.7656 -64.05034,90.8532 -88.89662,87.4894 -4.14006,-0.5605 -17.19213,-7.7594 -48.27899,-26.6284 l -4.42801,-2.6878 -20.0741,18.7724 c -17.04599,15.9406 -31.59334,27.8198 -38.77502,31.6633 -1.42794,0.7642 -15.852539,3.8917 -17.945311,3.8909 -0.329756,-2e-4 -96.6362152,-64.0197 -214.014349,-142.2657 z"
         id="path3830"
         inkscape:connector-curvature="0" />
      <path
         style="fill:#a6cd97"
         d="m -125.68062,1059.7104 -213.49348,-142.51784 -4.40072,-8.18525 c -4.23312,-7.87352 -5.20244,-11.39277 -25.45111,-92.40354 l -21.0504,-84.21829 30.36526,-33.10032 c 16.70089,-18.20518 30.89608,-33.28834 31.54486,-33.51814 0.64879,-0.22979 46.23171,-12.40517 101.29538,-27.05639 l 100.11576,-26.63858 51.669086,-88.59375 c 28.417996,-48.72656 52.342462,-89.27452 53.165484,-90.10657 1.180406,-1.19337 30.9251719,-5.29902 140.85898,-19.44268 l 139.36259,-17.92984 192.51241,13.26189 c 105.8818,7.29404 192.63776,13.35607 192.79095,13.47118 0.15319,0.11511 -1.66969,29.05271 -4.05084,64.30578 l -4.32928,64.09649 -15.79022,77.8125 c -16.49007,81.26136 -18.18994,88.93519 -22.16916,100.07628 -5.76328,16.13601 -10.89816,23.96867 -23.08978,35.22072 l -5.40066,4.9845 -2.355,10.953 c -4.57003,21.25498 -14.89162,51.65061 -23.04543,67.86545 -11.6957,23.25812 -23.8231,37.3063 -32.20551,37.3063 -1.5862,0 -13.42158,-3.51383 -26.30083,-7.80853 l -23.41682,-7.80853 -56.25,52.82134 c -30.9375,29.05173 -57.59044,53.89695 -59.22875,55.21158 -2.86529,2.29921 -3.08911,2.33318 -5.87621,0.89191 -3.59661,-1.85988 -3.49643,-2.1409 -4.16762,11.69223 -2.05008,42.2519 -25.52314,101.9555 -56.38872,143.4242 -21.28355,28.5951 -46.04281,45.7124 -62.45189,43.1761 -4.88072,-0.7544 -3.42712,0.012 -30.70226,-16.186 l -21.94046,-13.0297 -4.30954,4.1138 c -21.98027,20.9819 -36.91408,34.2722 -44.9872,40.036 -8.81628,6.2945 -10.29213,7.0067 -17.750313,8.566 -4.473993,0.9354 -8.460909,1.7173 -8.859806,1.7376 -0.398897,0.02 -96.7973341,-64.096 -214.218751,-142.4809 z"
         id="path3828"
         inkscape:connector-curvature="0" />
      <path
         style="fill:#9abe8d"
         d="m -125.68062,1059.7031 -213.49348,-142.52525 -3.96378,-7.27871 c -3.67617,-6.75058 -5.4958,-13.37051 -25.07812,-91.236 -11.61289,-46.17652 -21.11435,-84.66844 -21.11435,-85.53761 0,-1.85837 59.35238,-66.82848 61.69038,-67.52939 10.37704,-3.11096 199.90234,-53.23988 201.27837,-53.23758 1.03125,0.002 101.622788,27.89174 223.536741,61.97781 C 219.0891,708.42245 319.15682,735.9901 319.54784,735.59781 321.10657,734.03404 439.19756,485.47195 438.62634,484.95717 438.28922,484.65335 336.13059,472.93069 211.60715,458.9068 87.083712,444.88291 -16.228497,433.10337 -17.975537,432.73005 c -2.20875,-0.47198 39.392099,-6.17013 136.556327,-18.70437 l 139.73276,-18.02561 192.50617,13.26146 c 105.87837,7.29381 192.63152,13.35564 192.78471,13.47075 0.15319,0.11511 -1.66969,29.05271 -4.05084,64.30578 l -4.32928,64.09649 -15.79022,77.8125 c -16.49007,81.26136 -18.18994,88.93519 -22.16916,100.07628 -5.76328,16.13601 -10.89816,23.96867 -23.08978,35.22072 l -5.40066,4.9845 -2.355,10.953 c -4.57003,21.25498 -14.89162,51.65061 -23.04543,67.86545 -11.6957,23.25812 -23.8231,37.3063 -32.20551,37.3063 -1.5862,0 -13.42158,-3.51383 -26.30083,-7.80853 l -23.41682,-7.80853 -56.25,52.82134 c -30.9375,29.05173 -57.59044,53.89695 -59.22875,55.21158 -2.86529,2.29921 -3.08911,2.33318 -5.87621,0.89191 -3.59661,-1.85988 -3.49643,-2.1409 -4.16762,11.69223 -2.05008,42.2519 -25.52314,101.9555 -56.38872,143.4242 -21.28355,28.5951 -46.04281,45.7124 -62.45189,43.1761 -4.88072,-0.7544 -3.42712,0.012 -30.70226,-16.186 l -21.94046,-13.0297 -4.30954,4.1138 c -21.98027,20.9819 -36.91408,34.2722 -44.9872,40.036 -8.81628,6.2945 -10.29213,7.0067 -17.750313,8.566 -4.473993,0.9354 -8.460909,1.7173 -8.859806,1.7376 -0.398897,0.02 -96.7973341,-64.0994 -214.218751,-142.4882 z"
         id="path3826"
         inkscape:connector-curvature="0" />
      <path
         style="fill:#90b283"
         d="m -125.68062,1059.6921 -213.49348,-142.53626 -4.32778,-8.63564 c -4.00734,-7.99623 -5.87539,-14.79676 -25.2289,-91.84425 -11.49562,-45.76473 -20.69248,-83.41724 -20.43748,-83.67224 0.25501,-0.25501 101.0063,49.52871 223.89176,110.63047 122.885463,61.10176 223.678262,111.08715 223.984,111.07864 0.305747,-0.008 16.341872,-23.88106 35.635837,-53.0501 23.966673,-36.23338 34.722513,-53.25554 33.951723,-53.73191 -0.62051,-0.3835 -103.873585,-41.36366 -229.45128,-91.06703 -161.44159,-63.89821 -227.82067,-90.57766 -226.60797,-91.07952 3.32433,-1.37574 199.55237,-53.42879 201.40259,-53.4257 1.03125,0.002 101.622788,27.89174 223.536741,61.97781 121.913959,34.08608 221.985119,61.65132 222.380339,61.2561 1.56637,-1.56637 119.65258,-250.11926 119.07556,-250.6353 -0.3397,-0.30382 -102.50045,-12.02648 -227.02389,-26.05037 -124.523438,-14.02389 -227.835647,-25.80343 -229.582687,-26.17675 -2.20875,-0.47198 39.392099,-6.17013 136.556327,-18.70437 l 139.73276,-18.02561 192.50617,13.26146 c 105.87837,7.29381 192.63152,13.35564 192.78471,13.47075 0.15319,0.11511 -1.66969,29.05271 -4.05084,64.30578 l -4.32928,64.09649 -15.79022,77.8125 c -16.49007,81.26136 -18.18994,88.93519 -22.16916,100.07628 -5.76328,16.13601 -10.89816,23.96867 -23.08978,35.22072 l -5.40066,4.9845 -2.355,10.953 c -4.57003,21.25498 -14.89162,51.65061 -23.04543,67.86545 -11.6957,23.25812 -23.8231,37.3063 -32.20551,37.3063 -1.5862,0 -13.42158,-3.51383 -26.30083,-7.80853 l -23.41682,-7.80853 -56.25,52.82134 c -30.9375,29.05173 -57.59044,53.89695 -59.22875,55.21158 -2.86529,2.29921 -3.08911,2.33318 -5.87621,0.89191 -3.59661,-1.85988 -3.49643,-2.1409 -4.16762,11.69223 -2.05008,42.2519 -25.52314,101.9555 -56.38872,143.4242 -21.28355,28.5951 -46.04281,45.7124 -62.45189,43.1761 -4.88072,-0.7544 -3.42712,0.012 -30.70226,-16.186 l -21.94046,-13.0297 -4.30954,4.1138 c -21.98027,20.9819 -36.91408,34.2722 -44.9872,40.036 -8.81628,6.2945 -10.29213,7.0067 -17.750313,8.566 -4.473993,0.9354 -8.460909,1.7173 -8.859806,1.7376 -0.398897,0.02 -96.7973341,-64.1043 -214.218751,-142.4992 z"
         id="path3824"
         inkscape:connector-curvature="0" />
      <path
         style="fill:#83a377"
         d="m -125.63774,1059.5859 -213.50683,-142.33754 -3.99945,-7.95927 -3.99945,-7.95928 7.26593,4.65444 c 3.99627,2.55995 97.54719,63.84597 207.89094,136.19115 l 200.625,131.5367 0.280594,-3.8971 c 0.154331,-2.1435 -2.075185,-51.2128 -4.954463,-109.043 l -5.235065,-105.14586 4.106287,-6.30829 c 2.258456,-3.46957 18.235153,-27.63516 35.503763,-53.70133 L 129.73699,848.22349 -99.837625,757.3438 C -259.17454,694.26849 -328.89776,666.25153 -327.73067,665.76929 c 2.37509,-0.98136 199.18997,-53.35235 200.90032,-53.45808 0.77344,-0.0478 101.338022,27.84556 223.476844,61.98529 122.138826,34.13973 222.444236,61.94769 222.900896,61.79547 0.96353,-0.32117 119.82506,-249.06238 119.85336,-250.8168 0.0104,-0.64453 -0.75267,-1.17187 -1.6957,-1.17187 -2.19504,0 -448.434538,-50.41632 -453.44165,-51.23002 -2.0625,-0.33518 -3.328125,-0.75773 -2.8125,-0.939 0.515625,-0.18127 62.953125,-8.33943 138.75,-18.12923 l 137.8125,-17.79964 192.1875,13.22775 c 105.70313,7.27527 192.47081,13.49183 192.81713,13.81457 0.34631,0.32275 -1.41525,30.11807 -3.91463,66.21182 l -4.54425,65.625 -15.91875,77.8125 c -17.15766,83.86817 -17.60569,85.87055 -21.69553,96.96283 -5.43731,14.74672 -9.01116,20.50856 -18.94106,30.53717 l -9.28275,9.375 -2.32828,10.78125 c -4.57088,21.16563 -14.90729,51.56315 -23.01872,67.6937 -11.6957,23.25812 -23.8231,37.3063 -32.20551,37.3063 -1.5862,0 -13.4518,-3.5287 -26.36801,-7.84157 l -23.48401,-7.84157 -57.91834,54.21179 c -31.85509,29.81649 -58.47815,54.67638 -59.16234,55.24422 -0.92088,0.76426 -1.99643,0.64334 -4.1407,-0.4655 -3.59572,-1.85943 -3.49565,-2.14024 -4.16683,11.69263 -2.05008,42.2519 -25.52314,101.9555 -56.38872,143.4242 -21.28355,28.5951 -46.04281,45.7124 -62.45189,43.1761 -4.88045,-0.7543 -3.42952,0.01 -30.68323,-16.1747 -21.81383,-12.9545 -21.93117,-13.0097 -23.90625,-11.235 -1.09166,0.9808 -9.48775,8.7902 -18.65799,17.354 -18.44096,17.2216 -21.34041,19.6742 -31.70538,26.8192 -6.23969,4.3012 -8.19699,5.1192 -15.697157,6.5601 l -8.568609,1.6462 -213.506834,-142.3375 z m -65.94866,-61.01117 -40.80844,-26.50268 -11.47935,-57.65625 c -6.31364,-31.71094 -11.46006,-57.90937 -11.4365,-58.21873 0.0235,-0.30937 2.80802,-1.7377 6.18768,-3.17408 4.84976,-2.06117 6.57866,-2.40795 8.20313,-1.64534 1.13206,0.53144 20.40148,10.89735 42.82095,23.03534 l 40.76266,22.06909 9.45416,60.65218 9.45416,60.65214 -4.98485,3.1888 c -2.74167,1.7538 -5.52042,3.3943 -6.17501,3.6455 -0.65458,0.2512 -19.55394,-11.4695 -41.99859,-26.04598 z"
         id="path3822"
         inkscape:connector-curvature="0" />
      <path
         style="fill:#819977"
         d="M -115.34049,1066.4964 C -227.10523,992.01148 -318.97097,930.61984 -319.4866,930.07055 c -1.1565,-1.23201 -25.54332,-16.50443 182.68883,114.41015 98.03677,61.6353 184.56772,116.1997 192.291004,121.2542 7.723285,5.0545 14.165766,9.0666 14.316619,8.9157 0.150863,-0.1509 -2.039953,-46.8474 -4.868466,-103.7702 -2.828521,-56.9227 -5.218031,-106.23804 -5.310037,-109.5896 l -0.167288,-6.09375 35.340216,-53.3673 35.340212,-53.36729 -12.00304,-4.80422 c -6.60168,-2.64232 -110.0021094,-43.59187 -229.77875,-90.999 -151.19934,-59.84412 -217.26151,-86.40726 -216.09375,-86.88978 2.37528,-0.98146 199.19014,-53.35251 200.9007,-53.45825 0.77344,-0.0478 101.338022,27.84556 223.476844,61.98529 122.138826,34.13973 222.444236,61.94769 222.900896,61.79547 0.96353,-0.32117 119.82506,-249.06238 119.85336,-250.8168 0.0104,-0.64453 -0.75267,-1.17187 -1.6957,-1.17187 -2.19504,0 -448.434538,-50.41632 -453.44165,-51.23002 -2.0625,-0.33518 -3.328125,-0.75773 -2.8125,-0.939 0.515625,-0.18127 62.953125,-8.33943 138.75,-18.12923 l 137.8125,-17.79964 192.1875,13.22775 c 105.70313,7.27527 192.47081,13.49183 192.81713,13.81457 0.34631,0.32275 -1.41525,30.11807 -3.91463,66.21182 l -4.54425,65.625 -15.91875,77.8125 c -17.15766,83.86817 -17.60569,85.87055 -21.69553,96.96283 -5.43731,14.74672 -9.01116,20.50856 -18.94106,30.53717 l -9.28275,9.375 -2.32828,10.78125 c -4.57088,21.16563 -14.90729,51.56315 -23.01872,67.6937 -11.6957,23.25812 -23.8231,37.3063 -32.20551,37.3063 -1.5862,0 -13.4511,-3.52847 -26.36644,-7.84104 l -23.48243,-7.84104 -58.90184,55.12623 -58.90185,55.12623 -3.0865,-2.35419 -3.08649,-2.35418 -0.47428,3.11587 c -0.26085,1.71373 -0.70227,7.54556 -0.98094,12.95962 -2.14279,41.6322 -25.79206,101.4337 -56.34818,142.4867 -21.28355,28.5951 -46.04281,45.7124 -62.45189,43.1761 -4.88045,-0.7543 -3.42952,0.01 -30.68323,-16.1747 -21.81383,-12.9545 -21.93117,-13.0097 -23.90625,-11.235 -1.09166,0.9808 -9.48775,8.7902 -18.65799,17.354 -18.44096,17.2216 -21.34041,19.6742 -31.70538,26.8192 -6.23979,4.3013 -8.19692,5.1192 -15.697654,6.5602 l -8.569087,1.6463 -203.208609,-135.4272 z m -76.24591,-67.92167 -40.80844,-26.50268 -11.47935,-57.65625 c -6.31364,-31.71094 -11.46006,-57.90937 -11.4365,-58.21873 0.0235,-0.30937 2.80802,-1.7377 6.18768,-3.17408 4.84976,-2.06117 6.57866,-2.40795 8.20313,-1.64534 1.13206,0.53144 20.40148,10.89735 42.82095,23.03534 l 40.76266,22.06909 9.45416,60.65218 9.45416,60.65214 -4.98485,3.1888 c -2.74167,1.7538 -5.52042,3.3943 -6.17501,3.6455 -0.65458,0.2512 -19.55394,-11.4695 -41.99859,-26.04598 z"
         id="path3820"
         inkscape:connector-curvature="0" />
      <path
         style="fill:#7f7f80"
         d="M -106.903,1072.1214 C -274.21575,960.61842 -308.37394,937.71734 -302.6116,940.91019 c 0.51563,0.2857 84.46875,53.05204 186.5625,117.25851 177.606862,111.6965 185.636822,116.6306 185.89875,114.2275 0.150563,-1.3814 -2.064281,-49.3701 -4.921875,-106.6415 -2.857594,-57.2715 -5.195625,-105.64166 -5.195625,-107.48938 0,-2.85065 5.333541,-11.41568 35.212941,-56.54782 C 114.31221,872.46393 129.81612,848.22504 129.39822,847.85331 128.98032,847.48158 25.825738,806.5131 -99.834184,756.81224 -251.97601,696.6373 -327.77303,666.22283 -326.70919,665.77591 c 0.87868,-0.36913 46.23124,-12.54605 100.78349,-27.05984 l 99.1859,-26.3887 222.845347,62.32402 c 163.102233,45.61543 223.117843,62.04374 223.861793,61.27859 1.26525,-1.30135 119.45231,-249.27722 119.45231,-250.63059 0,-0.54076 -1.79297,-1.23438 -3.98438,-1.54138 -2.1914,-0.307 -105.02343,-11.96687 -228.51562,-25.91082 -123.492188,-13.94395 -224.846091,-25.4477 -225.230897,-25.56389 -0.384806,-0.11619 62.052694,-8.27728 138.749997,-18.13576 l 139.44965,-17.92451 191.42295,13.25371 c 105.28258,7.28954 191.62371,13.45714 191.86914,13.70576 0.24544,0.24863 -1.59393,29.9833 -4.0875,66.07705 l -4.53384,65.625 -15.91875,77.8125 c -17.15766,83.86817 -17.60569,85.87055 -21.69553,96.96283 -5.22347,14.16689 -8.98266,20.3456 -18.14091,29.81737 -6.66825,6.89656 -8.68106,8.50677 -8.94993,7.15979 -0.19069,-0.9558 -1.53854,4.07628 -2.99513,11.18239 -9.40931,45.90569 -31.77031,94.19322 -48.54539,104.83166 -2.34353,1.48622 -5.55875,2.70221 -7.14496,2.70221 -1.5862,0 -13.45136,-3.52855 -26.36701,-7.84123 l -23.48301,-7.84124 -58.52757,54.77991 -58.52756,54.77992 -0.25731,-14.42251 -0.2573,-14.42252 -6.84828,-2.8585 -6.84828,-2.8585 2.30582,5.70865 c 7.92753,19.62658 4.42209,59.54182 -8.57425,97.63222 -19.85512,58.1926 -54.62284,108.47 -85.92665,124.2579 -10.40388,5.2472 -20.67635,6.3026 -27.1875,2.7932 -1.28906,-0.6947 -12.20839,-7.1215 -24.26517,-14.2817 -21.81383,-12.9545 -21.93117,-13.0097 -23.90625,-11.235 -1.09165,0.9808 -9.48775,8.7902 -18.65799,17.354 -18.44096,17.2216 -21.34041,19.6742 -31.70538,26.8192 -6.23979,4.3013 -8.19692,5.1192 -15.697663,6.5602 l -8.569106,1.6463 L -106.903,1072.1214 Z M 570.37837,759.96267 c -0.23578,-0.90234 -0.42872,-0.16406 -0.42872,1.64063 0,1.80469 0.19294,2.54297 0.42872,1.64062 0.23587,-0.90234 0.23587,-2.3789 0,-3.28125 z m 2.46,-15.15625 c -0.90835,-1.20798 -1.64119,1.68821 -1.82784,7.22349 l -0.21207,6.29214 1.16682,-6.5625 c 0.64181,-3.60938 1.03462,-6.73828 0.87309,-6.95313 z m -763.87956,254.03377 c -22.16752,-14.42115 -40.60944,-26.97636 -40.98205,-27.90046 -0.3726,-0.9241 -5.57513,-26.35987 -11.56119,-56.52393 -5.98605,-30.16406 -11.09064,-55.71821 -11.34352,-56.78701 -0.38945,-1.64598 0.48941,-2.34667 5.74501,-4.58032 4.90067,-2.08282 6.63739,-2.43399 8.26306,-1.67082 1.13206,0.53144 20.40148,10.89735 42.82095,23.03534 l 40.76266,22.06909 9.45416,60.65218 9.45416,60.65214 -4.98485,3.1888 c -2.74167,1.7538 -5.51112,3.3905 -6.15433,3.637 -0.6432,0.2466 -19.30653,-11.3509 -41.47406,-25.77201 z"
         id="path3818"
         inkscape:connector-curvature="0" />
      <path
         style="fill:#738e69"
         d="M -106.903,1072.1214 C -274.21575,960.61842 -308.37394,937.71734 -302.6116,940.91019 c 0.51563,0.2857 84.46875,53.05204 186.5625,117.25851 177.606862,111.6965 185.636822,116.6306 185.89875,114.2275 0.150563,-1.3814 -2.064281,-49.3701 -4.921875,-106.6415 -2.857594,-57.2715 -5.195625,-105.64166 -5.195625,-107.48938 0,-2.85065 5.333541,-11.41568 35.212941,-56.54782 C 114.31221,872.46393 129.81612,848.22504 129.39822,847.85331 128.98032,847.48158 25.825738,806.5131 -99.834184,756.81224 -251.97601,696.6373 -327.77303,666.22283 -326.70919,665.77591 c 0.87868,-0.36913 46.23124,-12.54605 100.78349,-27.05984 l 99.1859,-26.3887 222.845347,62.32402 c 163.102233,45.61543 223.117843,62.04374 223.861793,61.27859 1.26525,-1.30135 119.45231,-249.27722 119.45231,-250.63059 0,-0.54076 -1.79297,-1.23438 -3.98438,-1.54138 -2.1914,-0.307 -105.02343,-11.96687 -228.51562,-25.91082 -123.492188,-13.94395 -224.846091,-25.4477 -225.230897,-25.56389 -0.384806,-0.11619 62.052694,-8.27728 138.749997,-18.13576 l 139.44965,-17.92451 191.42295,13.25371 c 105.28258,7.28954 191.62371,13.45714 191.86914,13.70576 0.24544,0.24863 -1.59393,29.9833 -4.0875,66.07705 l -4.53384,65.625 -15.91875,77.8125 c -17.15766,83.86817 -17.60569,85.87055 -21.69553,96.96283 -5.21963,14.15629 -8.98435,20.34768 -18.10613,29.77681 -6.85162,7.08243 -8.68378,8.52826 -9.14409,7.21607 -0.33769,-0.96267 -1.24256,1.82044 -2.18906,6.7329 -5.82891,30.25085 -18.40069,64.55244 -32.42707,88.47631 -5.97398,10.1894 -16.83011,22.08719 -21.09801,23.12238 -2.16972,0.52627 -8.23186,-1.13697 -27.51256,-7.54849 l -24.72966,-8.22349 -3.42495,3.28538 c -1.88372,1.80696 -28.31557,26.56321 -58.73744,55.01388 l -55.3125,51.72852 -0.25731,-14.42727 -0.2573,-14.42725 -6.84828,-2.8585 -6.84828,-2.8585 2.31432,5.72969 c 9.13206,22.60871 2.94297,68.96458 -15.28536,114.48628 -27.17397,67.8615 -73.99445,119.0001 -101.89743,111.295 -1.90005,-0.5247 -13.8256,-7.1128 -26.50123,-14.6401 -12.67562,-7.5274 -23.37251,-13.6862 -23.77086,-13.6862 -0.39835,0 -9.56655,8.2668 -20.37377,18.3707 -16.11065,15.0622 -30.64286,26.9692 -38.74515,31.746 -0.70572,0.4161 -5.02748,1.4758 -9.603897,2.355 l -8.320762,1.5986 L -106.903,1072.1214 Z M 570.37837,759.96267 c -0.23578,-0.90234 -0.42872,-0.16406 -0.42872,1.64063 0,1.80469 0.19294,2.54297 0.42872,1.64062 0.23587,-0.90234 0.23587,-2.3789 0,-3.28125 z m 2.46,-15.15625 c -0.90835,-1.20798 -1.64119,1.68821 -1.82784,7.22349 l -0.21207,6.29214 1.16682,-6.5625 c 0.64181,-3.60938 1.03462,-6.73828 0.87309,-6.95313 z m -763.87956,254.03377 c -22.16752,-14.42115 -40.60944,-26.97636 -40.98205,-27.90046 -0.3726,-0.9241 -5.57513,-26.35987 -11.56119,-56.52393 -5.98605,-30.16406 -11.09064,-55.71821 -11.34352,-56.78701 -0.38945,-1.64598 0.48941,-2.34667 5.74501,-4.58032 4.90067,-2.08282 6.63739,-2.43399 8.26306,-1.67082 1.13206,0.53144 20.40148,10.89735 42.82095,23.03534 l 40.76266,22.06909 9.45416,60.65218 9.45416,60.65214 -4.98485,3.1888 c -2.74167,1.7538 -5.51112,3.3905 -6.15433,3.637 -0.6432,0.2466 -19.30653,-11.3509 -41.47406,-25.77201 z"
         id="path3816"
         inkscape:connector-curvature="0" />
      <path
         style="fill:#62795a"
         d="m 214.28178,1176.0607 c -1.36489,-0.4433 -13.03638,-7.0651 -25.93664,-14.7149 l -23.45503,-13.9088 2.98388,-3.3075 c 2.96093,-3.282 3.00056,-3.459 5.15,-22.9949 1.99647,-18.1457 2.68134,-21.5231 8.74498,-43.125 5.67491,-20.2172 7.99109,-26.6941 16.8568,-47.1381 8.48166,-19.5584 12.47976,-27.365 22.87642,-44.66834 15.65153,-26.04906 33.38309,-48.20237 47.55095,-59.40876 13.97209,-11.05156 18.38879,-13.70827 29.1215,-17.51711 l 10.16124,-3.60603 9.05751,2.32874 9.05751,2.32874 5.77227,7.43416 c 5.50641,7.09174 5.88748,7.93072 8.27358,18.2154 1.37572,5.92969 2.70757,11.5151 2.95965,12.41202 0.38117,1.35618 -0.8142,1.0861 -7.09936,-1.60407 -7.02537,-3.00698 -7.46133,-3.08775 -6.18949,-1.14667 12.18759,18.60061 6.51434,70.29612 -13.08636,119.24492 -24.58374,61.3931 -65.74584,110.2498 -94.08252,111.6699 -3.4294,0.1719 -7.352,-0.05 -8.71689,-0.4937 z M -191.10376,998.81722 c -27.81647,-18.08294 -40.48907,-26.83903 -41.00603,-28.33299 -0.87514,-2.52903 -23.24759,-114.46542 -22.91435,-114.6477 0.12377,-0.0677 3.03359,-1.28966 6.46628,-2.71546 l 6.24123,-2.59239 42.04002,22.70205 c 23.122,12.48612 42.17044,22.80755 42.32984,22.93651 0.1594,0.12895 4.54761,27.54364 9.75158,60.92153 7.90026,50.67163 9.24491,60.81933 8.14768,61.48843 -0.72275,0.4407 -3.44806,2.0634 -6.05625,3.6061 l -4.74215,2.8047 -40.25785,-26.17078 z m 676.64287,-121.60228 -23.7243,-7.99033 9.6618,-9.0048 c 5.31398,-4.95265 12.22636,-11.55416 15.36083,-14.67003 l 5.69906,-5.66523 2.65369,-13.125 c 9.74638,-48.20483 35.25798,-104.08571 55.03137,-120.54131 5.11565,-4.25727 5.93268,-4.61494 10.54172,-4.61494 4.67081,0 5.17143,0.22905 7.68356,3.51562 3.80718,4.98097 5.57981,14.71133 5.21259,28.6138 -0.16031,6.06962 -0.66056,10.80755 -1.11169,10.52872 -0.81778,-0.5054 -1.30593,2.26303 -2.3535,13.34662 -0.66759,7.06369 -5.19375,28.47745 -8.4734,40.08899 -9.05513,32.05889 -24.67507,65.06484 -37.33899,78.89977 -5.84519,6.38567 -9.45401,8.80291 -12.96252,8.68246 -1.18576,-0.0407 -12.83186,-3.66966 -25.88022,-8.06434 z M -99.365688,757.10347 c -152.500672,-60.3873 -228.408082,-90.8805 -227.343752,-91.32756 0.87881,-0.36913 46.18715,-12.53422 100.68519,-27.03356 l 99.08735,-26.36242 222.699791,62.18982 c 122.484879,34.20438 222.695959,62.40074 222.691289,62.65855 -0.01,0.53813 -185.33718,109.33586 -187.47203,110.05673 -0.77344,0.26116 -104.429962,-40.32054 -230.347838,-90.18156 z M 211.60715,458.28806 C 87.599337,444.19471 -15.127225,432.53064 -16.6741,432.36792 c -1.546875,-0.16273 59.835937,-8.35547 136.40625,-18.20608 l 139.21875,-17.91022 191.53208,13.21117 c 106.51417,7.34695 190.78267,13.53928 189.84376,13.95035 -4.443,1.94519 -199.51177,60.6779 -201.25301,60.59468 -1.0988,-0.0525 -103.45877,-11.62641 -227.46658,-25.71976 z"
         id="path3814"
         inkscape:connector-curvature="0" />
      <path
         style="fill:#936041"
         d="m 214.28178,1176.0607 c -1.36489,-0.4433 -13.03638,-7.0651 -25.93664,-14.7149 l -23.45503,-13.9088 2.98388,-3.3075 c 2.96093,-3.282 3.00056,-3.459 5.15,-22.9949 1.99647,-18.1457 2.68134,-21.5231 8.74498,-43.125 5.67491,-20.2172 7.99109,-26.6941 16.8568,-47.1381 8.48166,-19.5584 12.47976,-27.365 22.87642,-44.66834 10.39468,-17.30002 14.90065,-23.73179 25.7591,-36.76825 10.23425,-12.28704 15.30531,-17.49666 22.80599,-23.4291 l 9.64538,-7.62874 20.32225,8.18062 c 11.17723,4.49934 20.32224,8.09925 20.32224,7.99982 0,-0.0994 -6.95091,-4.77747 -15.44646,-10.39563 -8.49555,-5.61816 -15.31841,-10.62906 -15.1619,-11.13536 0.1565,-0.50629 4.67557,-2.28875 10.04238,-3.96102 10.51293,-3.27578 9.49106,-3.28999 22.1253,0.30769 4.36725,1.24361 5.3756,2.08462 10.3125,8.60113 5.1225,6.7615 5.65857,7.97107 8.3946,18.94148 1.60746,6.44531 2.58082,11.85133 2.16301,12.01337 -0.41781,0.16205 -4.63231,-2.30934 -9.36556,-5.49198 l -8.60591,-5.7866 3.07288,4.46629 c 7.11149,10.33618 9.43979,22.6949 8.2195,43.62933 -1.43951,24.69489 -7.7711,51.03069 -19.0263,79.13839 -24.58374,61.393 -65.74584,110.2497 -94.08252,111.6698 -3.4294,0.1719 -7.352,-0.05 -8.71689,-0.4937 z M 324.10715,937.49934 c 0,-0.19467 -0.73828,-0.93296 -1.64063,-1.64063 -1.48693,-1.16613 -1.52009,-1.13297 -0.35396,0.35396 1.22472,1.56165 1.99459,2.05827 1.99459,1.28667 z m -515.21091,61.31788 c -27.81647,-18.08294 -40.48907,-26.83903 -41.00603,-28.33299 -0.87514,-2.52903 -23.24759,-114.46542 -22.91435,-114.6477 0.12377,-0.0677 3.03359,-1.28966 6.46628,-2.71546 l 6.24123,-2.59239 42.04002,22.70205 c 23.122,12.48612 42.17043,22.80755 42.32984,22.93651 0.1594,0.12895 4.54761,27.54364 9.75158,60.92153 7.90026,50.67163 9.24491,60.81933 8.14768,61.48843 -0.72275,0.4407 -3.44806,2.0634 -6.05625,3.6061 l -4.74215,2.8047 -40.25785,-26.17078 z m 676.64287,-121.60228 -23.7243,-7.99033 9.6618,-9.0048 c 5.31398,-4.95265 12.22636,-11.55416 15.36083,-14.67003 l 5.69906,-5.66523 2.65369,-13.125 c 9.75662,-48.25551 35.13299,-103.84025 54.97643,-120.42099 5.24025,-4.3787 6.04069,-4.73526 10.63003,-4.73526 4.57087,0 5.16084,0.25939 7.46737,3.28352 1.4986,1.96472 3.04294,5.82424 3.84507,9.60937 1.5825,7.46783 1.86384,28.97478 0.3854,29.46759 -0.54328,0.18107 -1.38346,4.51226 -1.86712,9.62487 -3.88931,41.10843 -26.61881,101.5666 -46.24552,123.00817 -5.84519,6.38567 -9.45401,8.80291 -12.96252,8.68246 -1.18576,-0.0407 -12.83186,-3.66966 -25.88022,-8.06434 z M -99.344322,757.08921 c -151.476888,-59.97806 -228.386908,-90.8692 -227.343758,-91.3133 0.86707,-0.36913 46.16579,-12.53422 100.66383,-27.03356 l 99.08735,-26.36242 222.650337,62.18982 c 122.457683,34.20438 222.360573,62.46198 222.006403,62.79466 -0.64585,0.60666 -187.84943,110.54244 -188.04162,110.42792 -0.0563,-0.0336 -103.116423,-40.84994 -229.022542,-90.70312 z M 211.60715,458.28806 C 87.599337,444.19471 -15.127225,432.53064 -16.6741,432.36792 c -1.546875,-0.16273 60.046875,-8.36225 136.875,-18.22116 l 139.6875,-17.92529 186.5625,12.94256 c 102.60938,7.11841 188.62247,13.07541 191.14022,13.23779 3.96094,0.25545 -9.06103,4.43222 -96.64392,30.99835 -55.67194,16.88672 -101.81787,30.66016 -102.54651,30.60765 -0.72863,-0.0525 -102.78573,-11.62641 -226.79354,-25.71976 z"
         id="path3812"
         inkscape:connector-curvature="0" />
      <path
         style="fill:#596e51"
         d="m 214.28178,1176.0607 c -1.36489,-0.4433 -13.03638,-7.0651 -25.93664,-14.7149 l -23.45503,-13.9088 2.98388,-3.3075 c 2.96093,-3.282 3.00056,-3.459 5.15,-22.9949 1.99647,-18.1457 2.68134,-21.5231 8.74498,-43.125 5.67491,-20.2172 7.99109,-26.6941 16.8568,-47.1381 8.48166,-19.5584 12.47976,-27.365 22.87642,-44.66834 10.39468,-17.30002 14.90065,-23.73179 25.7591,-36.76825 10.23425,-12.28704 15.30531,-17.49666 22.80599,-23.4291 l 9.64538,-7.62874 20.32225,8.18062 c 11.17723,4.49934 20.32224,8.09925 20.32224,7.99982 0,-0.0994 -6.95091,-4.77747 -15.44646,-10.39563 -8.49555,-5.61816 -15.31841,-10.62906 -15.1619,-11.13536 0.1565,-0.50629 4.67557,-2.28875 10.04238,-3.96102 10.51293,-3.27578 9.49106,-3.28999 22.1253,0.30769 4.36725,1.24361 5.3756,2.08462 10.3125,8.60113 5.1225,6.7615 5.65857,7.97107 8.3946,18.94148 1.60746,6.44531 2.58082,11.85133 2.16301,12.01337 -0.41781,0.16205 -4.63231,-2.30934 -9.36556,-5.49198 l -8.60591,-5.7866 3.07288,4.46629 c 7.11149,10.33618 9.43979,22.6949 8.2195,43.62933 -1.43951,24.69489 -7.7711,51.03069 -19.0263,79.13839 -24.58374,61.393 -65.74584,110.2497 -94.08252,111.6698 -3.4294,0.1719 -7.352,-0.05 -8.71689,-0.4937 z M 324.10715,937.49934 c 0,-0.19467 -0.73828,-0.93296 -1.64063,-1.64063 -1.48693,-1.16613 -1.52009,-1.13297 -0.35396,0.35396 1.22472,1.56165 1.99459,2.05827 1.99459,1.28667 z m -514.6875,61.18457 c -21.39844,-13.93803 -39.58546,-26.04949 -40.41561,-26.91436 -1.02471,-1.06758 -5.03061,-19.33301 -12.47577,-56.885 -6.03153,-30.42188 -11.18288,-56.05506 -11.44746,-56.96263 -0.37748,-1.29488 0.84871,-2.24676 5.69541,-4.42133 l 6.17646,-2.77119 42.58142,23.01058 c 37.52743,20.27947 42.64218,23.30785 43.09343,25.51508 1.22148,5.97486 18.4664,118.47804 18.19099,118.67514 -2.86384,2.0499 -10.46483,6.1635 -11.33483,6.1343 -0.63678,-0.021 -18.6656,-11.4426 -40.06404,-25.38059 z m 676.11946,-121.46897 -23.7243,-7.99033 9.6618,-9.0048 c 5.31398,-4.95265 12.22636,-11.55416 15.36083,-14.67003 l 5.69906,-5.66523 2.65369,-13.125 c 9.75662,-48.25551 35.13299,-103.84025 54.97643,-120.42099 5.24025,-4.3787 6.04069,-4.73526 10.63003,-4.73526 4.57087,0 5.16084,0.25939 7.46737,3.28352 1.4986,1.96472 3.04294,5.82424 3.84507,9.60937 1.5825,7.46783 1.86384,28.97478 0.3854,29.46759 -0.54328,0.18107 -1.38346,4.51226 -1.86712,9.62487 -3.88931,41.10843 -26.61881,101.5666 -46.24552,123.00817 -5.84519,6.38567 -9.45401,8.80291 -12.96252,8.68246 -1.18576,-0.0407 -12.83186,-3.66966 -25.88022,-8.06434 z M -99.344322,757.08921 c -151.476888,-59.97806 -228.386908,-90.8692 -227.343758,-91.3133 0.86707,-0.36913 46.16579,-12.53422 100.66383,-27.03356 l 99.08735,-26.36242 222.650337,62.18982 c 122.457683,34.20438 222.360573,62.46198 222.006403,62.79466 -0.64585,0.60666 -187.84943,110.54244 -188.04162,110.42792 -0.0563,-0.0336 -103.116423,-40.84994 -229.022542,-90.70312 z M 211.60715,458.28806 C 87.599337,444.19471 -15.127225,432.53064 -16.6741,432.36792 c -1.546875,-0.16273 60.046875,-8.36225 136.875,-18.22116 l 139.6875,-17.92529 186.5625,12.94256 c 102.60938,7.11841 188.62247,13.07541 191.14022,13.23779 3.96094,0.25545 -9.06103,4.43222 -96.64392,30.99835 -55.67194,16.88672 -101.81787,30.66016 -102.54651,30.60765 -0.72863,-0.0525 -102.78573,-11.62641 -226.79354,-25.71976 z"
         id="path3810"
         inkscape:connector-curvature="0" />
      <path
         style="fill:#394635"
         d="m 214.28178,1176.0607 c -1.36489,-0.4433 -13.05518,-7.0762 -25.97842,-14.7397 l -23.4968,-13.9336 3.12236,-3.2827 3.12237,-3.2826 2.06046,-19.2188 c 1.89134,-17.6413 2.60369,-21.1809 8.67892,-43.125 5.81028,-20.9871 7.87452,-26.8083 16.90492,-47.672 8.52987,-19.7073 12.42101,-27.3118 22.78625,-44.53122 15.86876,-26.36232 33.27624,-47.92479 48.23995,-59.75433 5.16047,-4.07959 9.92164,-7.41745 10.58039,-7.41745 2.54279,0 37.00043,14.33422 41.13659,17.11263 5.07516,3.40917 9.00054,9.52633 12.18017,18.98112 2.03067,6.03831 2.20133,8.02276 2.13644,24.84375 -0.0577,14.94502 -0.45603,20.2488 -2.18299,29.0625 -3.73926,19.0837 -9.2207,37.6246 -16.4912,55.7813 -24.58374,61.393 -65.74584,110.2497 -94.08252,111.6698 -3.4294,0.1719 -7.352,-0.05 -8.71689,-0.4937 z M -190.58035,998.68391 c -21.39844,-13.93803 -39.58546,-26.04949 -40.41561,-26.91436 -1.02471,-1.06758 -5.03061,-19.33301 -12.47577,-56.885 -6.03153,-30.42188 -11.18288,-56.05506 -11.44746,-56.96263 -0.37748,-1.29488 0.84871,-2.24676 5.69541,-4.42133 l 6.17646,-2.77119 42.58142,23.01058 c 37.52743,20.27947 42.64218,23.30785 43.09343,25.51508 1.22148,5.97486 18.4664,118.47804 18.19099,118.67514 -2.86384,2.0499 -10.46483,6.1635 -11.33483,6.1343 -0.63678,-0.021 -18.6656,-11.4426 -40.06404,-25.38059 z m 508.3008,-80.24138 c -10.98925,-4.38464 -19.72887,-8.22365 -19.42138,-8.53115 0.30749,-0.3075 2.83219,-1.26239 5.61043,-2.122 4.93747,-1.52767 5.24878,-1.50941 13.8083,0.81003 8.22737,2.22944 8.95464,2.63112 12.02627,6.64226 6.01723,7.85772 8.59031,11.36238 8.27231,11.26728 -0.17351,-0.0518 -9.30669,-3.68178 -20.29593,-8.06642 z m 167.96962,-41.17727 -23.57332,-7.94001 15.13582,-14.35612 15.13583,-14.35612 3.1035,-14.63296 c 6.14545,-28.97572 17.74763,-61.74658 30.42591,-85.93925 8.67061,-16.54527 16.29234,-26.81453 25.57068,-34.45313 4.26835,-3.51395 5.39457,-3.98437 9.53916,-3.98437 4.43259,0 4.84866,0.21518 7.32488,3.78848 1.58099,2.28133 3.10987,6.29062 3.84309,10.07812 1.73062,8.93943 1.72772,8.95602 -1.42088,8.3263 l -2.70731,-0.54147 1.34241,4.40866 c 1.62862,5.34863 1.8045,24.18948 0.31303,33.53781 -7.18903,45.06206 -26.91506,95.26583 -45.34102,115.39562 -5.84519,6.38567 -9.45401,8.80291 -12.96252,8.68246 -1.18576,-0.0407 -12.76393,-3.64701 -25.72925,-8.01402 z"
         id="path3808"
         inkscape:connector-curvature="0" />
      <path
         style="fill:#a01100"
         d="m 214.82712,1176.091 c -1.58059,-0.4084 -13.33391,-6.9666 -26.11849,-14.5738 l -23.24469,-13.8311 2.84204,-2.9633 c 2.79705,-2.9163 2.88003,-3.2913 5.24146,-23.6808 2.22144,-19.1807 2.88992,-22.4413 9.01166,-43.9546 5.56665,-19.5626 8.19527,-26.8862 16.62323,-46.3137 8.24384,-19.0031 12.25347,-26.8001 22.71474,-44.1704 18.9526,-31.46956 39.90854,-55.97508 56.98908,-66.64206 1.58079,-0.98721 4.43383,-0.11503 20.01665,6.11912 10.07621,4.03116 20.11799,8.698 22.53832,10.47451 5.51636,4.049 9.40785,10.14636 12.19708,19.11093 1.96646,6.32018 2.18029,8.73783 2.11448,23.90625 -0.0573,13.19471 -0.52743,19.32852 -2.15588,28.12505 -8.35471,45.13 -27.67565,89.6298 -54.89714,126.4388 -7.28184,9.8465 -22.80582,25.8488 -30.183,31.1131 -12.52273,8.936 -25.23397,13.0268 -33.68954,10.842 z M -190.58035,998.68391 c -21.39844,-13.93803 -39.58546,-26.04949 -40.41561,-26.91436 -1.02471,-1.06758 -5.03061,-19.33301 -12.47577,-56.885 -6.03153,-30.42188 -11.18288,-56.05506 -11.44746,-56.96263 -0.37748,-1.29488 0.84871,-2.24676 5.69541,-4.42133 l 6.17646,-2.77119 42.58142,23.01058 c 37.52743,20.27947 42.64218,23.30785 43.09343,25.51508 1.22148,5.97486 18.4664,118.47804 18.19099,118.67514 -2.86384,2.0499 -10.46483,6.1635 -11.33483,6.1343 -0.63678,-0.021 -18.6656,-11.4426 -40.06404,-25.38059 z M 319.8884,917.04688 c -13.51006,-6.82057 -16.50112,-8.66692 -15,-9.25933 3.09054,-1.21967 5.95752,-0.97574 13.80359,1.17451 l 7.46664,2.04627 5.57889,7.32873 c 3.06839,4.03081 5.45447,7.30634 5.30239,7.27897 -0.15208,-0.0274 -7.87026,-3.88349 -17.15151,-8.56915 z m 166.70579,-39.5019 c -12.46806,-4.21324 -22.91532,-7.91238 -23.21614,-8.22031 -0.3008,-0.30794 6.15179,-6.76079 14.3391,-14.33965 l 14.88603,-13.77975 3.03053,-14.25411 c 8.21037,-38.61764 27.41488,-86.51461 42.86959,-106.91885 2.40485,-3.17501 4.41954,-5.85915 4.47701,-5.96475 0.0572,-0.10559 3.23643,0.61362 7.06434,1.59824 3.82791,0.98462 7.08628,1.66374 7.24088,1.50916 0.15459,-0.15458 -2.4661,-1.44861 -5.82366,-2.87559 -3.35756,-1.427 -6.07706,-2.86348 -6.04341,-3.19218 0.0338,-0.3287 2.63691,-2.60155 5.78466,-5.05076 4.94372,-3.84658 6.30806,-4.4504 10.01681,-4.43311 3.91819,0.0183 4.52072,0.34133 6.89344,3.69574 1.5435,2.18225 2.98209,5.88801 3.54047,9.1206 0.5174,2.9947 1.15097,6.40419 1.40794,7.57666 0.46153,2.10522 0.42496,2.11406 -2.93504,0.71019 -3.1754,-1.32679 -3.36009,-1.31265 -2.769,0.21197 4.87444,12.57333 4.25972,31.47656 -1.92206,59.10565 -8.43112,37.68214 -25.30095,76.83746 -40.41557,93.80547 -5.12956,5.75856 -10.82481,9.57316 -14.07873,9.42975 -0.92289,-0.0407 -11.87912,-3.52115 -24.34719,-7.73437 z"
         id="path3806"
         inkscape:connector-curvature="0" />
      <path
         style="fill:#800d00"
         d="m 214.82712,1176.091 c -1.58059,-0.4084 -13.33391,-6.9666 -26.11849,-14.5738 l -23.24469,-13.8311 2.84204,-2.9633 c 2.79705,-2.9163 2.88003,-3.2913 5.24146,-23.6808 2.22144,-19.1807 2.88992,-22.4413 9.01166,-43.9546 5.56665,-19.5626 8.19527,-26.8862 16.62323,-46.3137 8.24384,-19.0031 12.25347,-26.8001 22.71474,-44.1704 18.9526,-31.46956 39.90854,-55.97508 56.98908,-66.64206 1.58079,-0.98721 4.43383,-0.11503 20.01665,6.11912 10.07621,4.03116 20.11799,8.698 22.53832,10.47451 5.51636,4.049 9.40785,10.14636 12.19708,19.11093 1.96646,6.32018 2.18029,8.73783 2.11448,23.90625 -0.0573,13.19471 -0.52743,19.32852 -2.15588,28.12505 -8.35471,45.13 -27.67565,89.6298 -54.89714,126.4388 -7.28184,9.8465 -22.80582,25.8488 -30.183,31.1131 -12.52273,8.936 -25.23397,13.0268 -33.68954,10.842 z m -375.44395,-212.47326 -9.80727,-60.48556 -41.95312,-23.15599 c -23.07422,-12.73578 -41.95313,-23.41697 -41.95313,-23.73594 0,-0.31898 2.55315,-1.68159 5.67368,-3.02803 l 5.67366,-2.44807 42.54926,22.99321 c 37.49846,20.2638 42.61004,23.2905 43.06128,25.4977 1.22148,5.97486 18.4664,118.47804 18.19099,118.67514 -2.07393,1.4845 -10.35472,6.1731 -10.90255,6.1731 -0.39904,0 -5.1388,-27.2185 -10.5328,-60.48556 z M 319.8884,917.04688 c -13.51006,-6.82057 -16.50112,-8.66692 -15,-9.25933 3.09054,-1.21967 5.95752,-0.97574 13.80359,1.17451 l 7.46664,2.04627 5.57889,7.32873 c 3.06839,4.03081 5.45447,7.30634 5.30239,7.27897 -0.15208,-0.0274 -7.87026,-3.88349 -17.15151,-8.56915 z m 166.70579,-39.5019 c -12.46806,-4.21324 -22.91532,-7.91238 -23.21614,-8.22031 -0.3008,-0.30794 6.15179,-6.76079 14.3391,-14.33965 l 14.88603,-13.77975 3.03053,-14.25411 c 8.21037,-38.61764 27.41488,-86.51461 42.86959,-106.91885 2.40485,-3.17501 4.41954,-5.85915 4.47701,-5.96475 0.0572,-0.10559 3.23643,0.61362 7.06434,1.59824 3.82791,0.98462 7.08628,1.66374 7.24088,1.50916 0.15459,-0.15458 -2.4661,-1.44861 -5.82366,-2.87559 -3.35756,-1.427 -6.07706,-2.86348 -6.04341,-3.19218 0.0338,-0.3287 2.63691,-2.60155 5.78466,-5.05076 4.94372,-3.84658 6.30806,-4.4504 10.01681,-4.43311 3.91819,0.0183 4.52072,0.34133 6.89344,3.69574 1.5435,2.18225 2.98209,5.88801 3.54047,9.1206 0.5174,2.9947 1.15097,6.40419 1.40794,7.57666 0.46153,2.10522 0.42496,2.11406 -2.93504,0.71019 -3.1754,-1.32679 -3.36009,-1.31265 -2.769,0.21197 4.87444,12.57333 4.25972,31.47656 -1.92206,59.10565 -8.43112,37.68214 -25.30095,76.83746 -40.41557,93.80547 -5.12956,5.75856 -10.82481,9.57316 -14.07873,9.42975 -0.92289,-0.0407 -11.87912,-3.52115 -24.34719,-7.73437 z"
         id="path3804"
         inkscape:connector-curvature="0" />
      <path
         style="fill:#293425"
         d="m 214.82712,1176.091 c -1.58059,-0.4084 -13.33391,-6.9666 -26.11849,-14.5738 l -23.24469,-13.8311 2.84204,-2.9633 c 2.79705,-2.9163 2.88003,-3.2913 5.24146,-23.6808 2.22144,-19.1807 2.88992,-22.4413 9.01166,-43.9546 5.56665,-19.5626 8.19527,-26.8862 16.62323,-46.3137 8.24384,-19.0031 12.25347,-26.8001 22.71474,-44.1704 18.9526,-31.46956 39.90854,-55.97508 56.98908,-66.64206 1.58079,-0.98721 4.43383,-0.11503 20.01665,6.11912 10.07621,4.03116 20.11799,8.698 22.53832,10.47451 5.51636,4.049 9.40785,10.14636 12.19708,19.11093 1.96646,6.32018 2.18029,8.73783 2.11448,23.90625 -0.0573,13.19471 -0.52743,19.32852 -2.15588,28.12505 -8.35471,45.13 -27.67565,89.6298 -54.89714,126.4388 -7.28184,9.8465 -22.80582,25.8488 -30.183,31.1131 -12.52273,8.936 -25.23397,13.0268 -33.68954,10.842 z M 319.8884,917.04688 c -13.51006,-6.82057 -16.50112,-8.66692 -15,-9.25933 3.09054,-1.21967 5.95752,-0.97574 13.80359,1.17451 l 7.46664,2.04627 5.57889,7.32873 c 3.06839,4.03081 5.45447,7.30634 5.30239,7.27897 -0.15209,-0.0274 -7.87026,-3.88349 -17.15151,-8.56915 z m -532.26174,-37.59447 c -22.55646,-12.48107 -41.01349,-22.94019 -41.01563,-23.2425 -0.002,-0.30229 2.42241,-1.59652 5.38787,-2.87605 l 5.39175,-2.32642 41.91905,22.56356 c 23.05548,12.40995 41.93388,22.79207 41.95201,23.07137 0.0459,0.7087 -10.06483,5.59517 -11.4722,5.54442 -0.63311,-0.0229 -19.6064,-10.2533 -42.16285,-22.73438 z m 698.96753,-1.90743 c -12.46806,-4.21324 -22.91532,-7.91238 -23.21614,-8.22031 -0.3008,-0.30794 6.15179,-6.76079 14.3391,-14.33965 l 14.88603,-13.77975 3.03053,-14.25411 c 8.21037,-38.61764 27.41488,-86.51461 42.86959,-106.91885 2.40485,-3.17501 4.41954,-5.85915 4.47701,-5.96475 0.0572,-0.10559 3.23643,0.61362 7.06434,1.59824 3.82791,0.98462 7.08628,1.66374 7.24088,1.50916 0.15459,-0.15458 -2.4661,-1.44861 -5.82366,-2.87559 -3.35756,-1.427 -6.07706,-2.86348 -6.04341,-3.19218 0.0338,-0.3287 2.63691,-2.60155 5.78466,-5.05076 4.94372,-3.84658 6.30806,-4.4504 10.01681,-4.43311 3.91819,0.0183 4.52072,0.34133 6.89344,3.69574 1.5435,2.18225 2.98209,5.88801 3.54047,9.1206 0.5174,2.9947 1.15097,6.40419 1.40794,7.57666 0.46153,2.10522 0.42496,2.11406 -2.93504,0.71019 -3.1754,-1.32679 -3.36009,-1.31265 -2.769,0.21197 4.87444,12.57333 4.25972,31.47656 -1.92206,59.10565 -8.43112,37.68214 -25.30095,76.83746 -40.41557,93.80547 -5.12956,5.75856 -10.82481,9.57316 -14.07873,9.42975 -0.92289,-0.0407 -11.87912,-3.52115 -24.34719,-7.73437 z"
         id="path3802"
         inkscape:connector-curvature="0" />
      <path
         style="fill:#640a00"
         d="m 214.82712,1176.091 c -1.58059,-0.4084 -13.33391,-6.9666 -26.11849,-14.5738 l -23.24469,-13.8311 2.95709,-3.051 c 2.94833,-3.0419 2.96397,-3.1118 5.27849,-23.5882 2.15564,-19.071 2.79258,-22.2005 8.92059,-43.8299 13.58448,-47.948 36.08349,-92.02206 64.7521,-126.84514 10.71599,-13.01647 15.19627,-17.64921 22.95246,-23.73358 l 9.6374,-7.56009 19.02105,7.60042 c 20.45056,8.17162 24.87516,10.76472 29.01687,17.00577 19.7674,29.78711 1.59824,112.88852 -38.08048,174.17102 -13.07798,20.1985 -29.27545,38.7397 -41.40285,47.3936 -12.52273,8.936 -25.23397,13.0268 -33.68954,10.842 z M -212.37334,879.45241 c -22.55646,-12.48107 -41.01349,-22.94019 -41.01563,-23.2425 -0.002,-0.30229 2.42241,-1.59652 5.38787,-2.87605 l 5.39175,-2.32642 41.91905,22.56356 c 23.05548,12.40995 41.93388,22.79207 41.95201,23.07137 0.0459,0.7087 -10.06483,5.59517 -11.4722,5.54442 -0.63311,-0.0229 -19.6064,-10.2533 -42.16285,-22.73438 z m 698.90274,-1.90743 c -12.5037,-4.21324 -22.754,-7.998 -22.77844,-8.4106 -0.0245,-0.4126 6.51445,-6.8935 14.53088,-14.40202 8.01642,-7.50852 14.57531,-13.79115 14.57531,-13.96141 0,-0.17027 1.49394,-7.18936 3.31988,-15.59799 8.18703,-37.70235 24.85573,-79.79453 40.47727,-102.21422 2.77392,-3.98106 5.47076,-7.50237 5.99301,-7.82512 0.52218,-0.32275 4.82606,0.32481 9.564,1.43903 4.73803,1.11422 9.52537,2.20814 10.63865,2.43094 4.95694,0.99209 8.35041,14.88241 7.404,30.30633 -2.62603,42.79272 -24.66075,103.86636 -45.97129,127.41818 -4.5435,5.02138 -10.26238,8.68694 -13.3413,8.55125 -0.92288,-0.0407 -11.90827,-3.52115 -24.41197,-7.73437 z m 73.93472,-170.56054 -7.86188,-1.89957 2.23688,-1.71994 c 1.32319,-1.01746 3.81872,-1.72845 6.10987,-1.74078 3.32194,-0.0179 4.2225,0.43717 6.32813,3.19785 1.35028,1.77028 2.45503,3.45778 2.45503,3.75 0,0.66445 0.18,0.69528 -9.26803,-1.58756 z"
         id="path3800"
         inkscape:connector-curvature="0" />
      <path
         style="fill:#000002"
         d="m 214.82712,1176.091 c -1.58059,-0.4084 -13.33391,-6.9666 -26.11849,-14.5738 l -23.24469,-13.8311 2.95709,-3.051 c 2.94833,-3.0419 2.96397,-3.1118 5.27849,-23.5882 2.15564,-19.071 2.79258,-22.2005 8.92059,-43.8299 13.58448,-47.948 36.08349,-92.02206 64.7521,-126.84514 10.71599,-13.01647 15.19627,-17.64921 22.95246,-23.73358 l 9.6374,-7.56009 19.02105,7.60042 c 20.45056,8.17162 24.87516,10.76472 29.01687,17.00577 19.7674,29.78711 1.59824,112.88852 -38.08048,174.17102 -13.07798,20.1985 -29.27545,38.7397 -41.40285,47.3936 -12.52273,8.936 -25.23397,13.0268 -33.68954,10.842 z M 486.5294,877.54498 c -12.5037,-4.21324 -22.754,-7.99801 -22.77844,-8.4106 -0.0245,-0.4126 6.51445,-6.8935 14.53088,-14.40202 8.01642,-7.50852 14.57531,-13.79115 14.57531,-13.96141 0,-0.17027 1.49394,-7.18936 3.31988,-15.59799 8.18703,-37.70235 24.85573,-79.79453 40.47727,-102.21422 2.77392,-3.98106 5.47076,-7.50237 5.99301,-7.82512 0.52218,-0.32275 4.82606,0.32481 9.564,1.43903 4.73803,1.11422 9.52537,2.20814 10.63865,2.43094 4.95694,0.99209 8.35041,14.88241 7.404,30.30633 -2.62603,42.79272 -24.66075,103.86636 -45.97129,127.41818 -4.5435,5.02138 -10.26238,8.68694 -13.3413,8.55125 -0.92288,-0.0407 -11.90827,-3.52115 -24.41197,-7.73437 z m 73.93472,-170.56054 -7.86188,-1.89957 2.23688,-1.71994 c 1.32319,-1.01746 3.81872,-1.72845 6.10987,-1.74078 3.32194,-0.0179 4.2225,0.43717 6.32813,3.19785 1.35028,1.77028 2.45503,3.45778 2.45503,3.75 0,0.66445 0.18,0.69528 -9.26803,-1.58756 z"
         id="path3798"
         inkscape:connector-curvature="0" />
    </g>
  </g>
</svg>
